<svg width="28" height="30" viewBox="0 0 28 30" fill="none" xmlns="http://www.w3.org/2000/svg">
<path d="M12.0071 10.9661V12.9639H10.6559V15.4057H12.0071V22.6642H14.7845V15.4057H16.6477C16.6477 15.4057 16.8233 14.2348 16.9078 12.9537H14.7952V11.2853C14.7952 11.0343 15.0981 10.6991 15.3984 10.6991H16.9104V8.15584H14.8528C11.9387 8.15584 12.0071 10.6005 12.0071 10.9661Z" fill="black"/>
<path d="M5.71362 3.80334C5.0026 3.80334 4.3207 4.10905 3.81793 4.65322C3.31517 5.19738 3.03271 5.93544 3.03271 6.70501V24.115C3.03271 24.8846 3.31517 25.6226 3.81793 26.1668C4.3207 26.711 5.0026 27.0167 5.71362 27.0167H21.7991C22.5101 27.0167 23.192 26.711 23.6948 26.1668C24.1975 25.6226 24.48 24.8846 24.48 24.115V6.70501C24.48 5.93544 24.1975 5.19738 23.6948 4.65322C23.192 4.10905 22.5101 3.80334 21.7991 3.80334H5.71362ZM5.71362 0.901672H21.7991C23.2211 0.901672 24.5849 1.51309 25.5904 2.60143C26.596 3.68977 27.1609 5.16587 27.1609 6.70501V24.115C27.1609 25.6541 26.596 27.1302 25.5904 28.2186C24.5849 29.3069 23.2211 29.9183 21.7991 29.9183H5.71362C4.29158 29.9183 2.92778 29.3069 1.92225 28.2186C0.916711 27.1302 0.351807 25.6541 0.351807 24.115V6.70501C0.351807 5.16587 0.916711 3.68977 1.92225 2.60143C2.92778 1.51309 4.29158 0.901672 5.71362 0.901672V0.901672Z" fill="black"/>
</svg>
