<svg width="171" height="117" viewBox="0 0 171 117" fill="none" xmlns="http://www.w3.org/2000/svg">
<path d="M0 20C0 8.95431 8.95431 0 20 0H151C162.046 0 171 8.95431 171 20V91.375C171 102.421 162.046 111.375 151 111.375H128.25H106.875H96.1875H94.0457C93.5413 111.375 93.0477 111.522 92.625 111.797V111.797L91.9773 112.219L91.1136 112.781L88.0909 115.031L87.2273 115.734L86.3636 116.367V116.367C85.8495 116.744 85.1505 116.744 84.6364 116.367V116.367L83.7727 115.734L82.0455 114.469L78.1591 111.656V111.656C77.8773 111.473 77.5482 111.375 77.2119 111.375H74.8125H64.125H42.75H20C8.95431 111.375 0 102.421 0 91.375V20Z" fill="white"/>
</svg>
