<svg width="27" height="24" viewBox="0 0 27 24" fill="none" xmlns="http://www.w3.org/2000/svg">
<path d="M26 11.9375H21.3125M7.25 1C7.6644 1 8.06183 1.16462 8.35485 1.45765C8.64788 1.75067 8.8125 2.1481 8.8125 2.5625V5.6875C8.8125 6.1019 8.64788 6.49933 8.35485 6.79235C8.06183 7.08538 7.6644 7.25 7.25 7.25C6.8356 7.25 6.43817 7.08538 6.14515 6.79235C5.85212 6.49933 5.6875 6.1019 5.6875 5.6875V2.5625C5.6875 2.1481 5.85212 1.75067 6.14515 1.45765C6.43817 1.16462 6.8356 1 7.25 1V1ZM26 4.125H8.8125H26ZM5.6875 4.125H1H5.6875ZM7.25 16.625C7.6644 16.625 8.06183 16.7896 8.35485 17.0826C8.64788 17.3757 8.8125 17.7731 8.8125 18.1875V21.3125C8.8125 21.7269 8.64788 22.1243 8.35485 22.4174C8.06183 22.7104 7.6644 22.875 7.25 22.875C6.8356 22.875 6.43817 22.7104 6.14515 22.4174C5.85212 22.1243 5.6875 21.7269 5.6875 21.3125V18.1875C5.6875 17.7731 5.85212 17.3757 6.14515 17.0826C6.43817 16.7896 6.8356 16.625 7.25 16.625ZM26 19.75H8.8125H26ZM5.6875 19.75H1H5.6875ZM19.75 8.8125C20.1644 8.8125 20.5618 8.97712 20.8549 9.27015C21.1479 9.56317 21.3125 9.9606 21.3125 10.375V13.5C21.3125 13.9144 21.1479 14.3118 20.8549 14.6049C20.5618 14.8979 20.1644 15.0625 19.75 15.0625C19.3356 15.0625 18.9382 14.8979 18.6451 14.6049C18.3521 14.3118 18.1875 13.9144 18.1875 13.5V10.375C18.1875 9.9606 18.3521 9.56317 18.6451 9.27015C18.9382 8.97712 19.3356 8.8125 19.75 8.8125V8.8125ZM18.1875 11.9375H1H18.1875Z" stroke="#4777F5" stroke-width="1.5" stroke-linecap="round" stroke-linejoin="round"/>
</svg>
